<?xml version="1.0" encoding="utf-8"?>
<!-- Generator: Adobe Illustrator 24.2.1, SVG Export Plug-In . SVG Version: 6.00 Build 0)  -->
<svg version="1.1" id="Group_1_copy" xmlns="http://www.w3.org/2000/svg" xmlns:xlink="http://www.w3.org/1999/xlink" x="0px"
	 y="0px" viewBox="0 0 595.7 595.7" style="enable-background:new 0 0 595.7 595.7;" xml:space="preserve">
<style type="text/css">
	.st0{fill:none;stroke:#9A92E0;stroke-width:10;}
	.st1{fill:none;stroke:#9A92E0;stroke-width:5.07;}
	.st2{fill-rule:evenodd;clip-rule:evenodd;fill:#9A92E0;}
</style>
<path id="Rounded_Rectangle_1_copy" class="st0" d="M470.9,183.9c-19.3,0-35-15.7-35-35v-101c0-7.7-6.3-14-14-14h-276
	c-19.3,0-35,15.7-35,35v458c0,19.3,15.7,35,35,35h304c19.3,0,35-15.7,35-35v-329C484.9,190.1,478.6,183.9,470.9,183.9L470.9,183.9z"
	/>
<path id="Rounded_Rectangle_1_copy_2" class="st1" d="M205.9,259.9h184c5.5,0,10,4.5,10,10v118c0,5.5-4.5,10-10,10h-184
	c-5.5,0-10-4.5-10-10v-118C195.9,264.3,200.3,259.9,205.9,259.9z"/>
<path id="Shape_1_copy" class="st2" d="M204.8,398l0-2.7l1.9,0c2.8,0,5.4-1.4,6.9-3.8l38.7-61.6l43,39l55-75l31.7,95.9
	c1.1,3.3,4.2,5.6,7.7,5.6l0,0l0.2,2.7L204.8,398z M380.8,272.9c6.5,0,11.7,5.4,11.5,11.9c-0.2,5.9-5.1,10.8-11,11
	c-6.6,0.2-11.9-5-11.9-11.5l0,0C369.3,278,374.5,272.9,380.8,272.9z"/>
</svg>
